<?xml version="1.0" encoding="UTF-8"?><svg id="Layer_1" xmlns="http://www.w3.org/2000/svg" viewBox="0 0 337.37 337.37"><path d="M41.51,258.41c-22.3-36.53-31.95-71.35-25.55-114.65,7.59-51.32,44.32-102.71,93.59-121.44,26.25-9.98,51.24-13.49,79.64-8.81,19.35,3.19,38.95,10.44,55.17,21.44l-.94.31C178.89,1.63,99.53,28.92,63.73,90.41c-53.55,91.97,6.13,216,115.27,218.85,30.8.8,68.68-10.22,93.15-29.32l3.58-2.18c.88-.62,1.55-1.5,2.35-2.19,2.5-2.13,5.01-4.36,7.49-6.55.55-.49,1.23-.84,1.56-1.56.13-.12.43.02.94-.62l.94-.94c.3-.26.37-.33.62-.62l.31-.31c.81-.82,1.9-2.14,2.81-3.12.3-.03.65.05.94,0v.31c-.33.11-.47.33-.62.62-2.86,5.52-12.03,14.24-16.69,18.42-61.17,54.89-150.75,61.24-212.54,3.41-4.89-4.57-9.1-9.7-13.57-14.66l-3.79-5.57-.56.26c-.54-2.01-2.24-3.7-3.45-5.47-.27-.39-.24-.92-.93-.77Z" style="fill:#eb283b;"/><path d="M278.69,202.54c-.54,0-.34-1.37-.32-1.73,1.48-27-3.87-50.63-19.52-72.83-40.71-57.74-123.78-62.98-171.78-11.43-18.93,20.33-29.92,48.04-29.33,76-.47.01-.46-1.11-.52-1.5-4.89-27.79,2.31-58.45,18.06-81.61,34.36-50.52,102.65-64.98,154.59-32.05,41.49,26.3,61.78,77.3,48.83,125.15Z" style="fill:#95368f;"/><path d="M72.09,165.09c.09-.07.57.07.62,0,.11-.16-.1-1.2,0-1.66.24-1.02,1.76-2.73,1.25-4.37l1.24-1.46c.33.86-.65,1.77-.64,2.33,0,.18.59,0,.67.61.22,1.67.02,4.61-.03,6.42,0,.42,0,.83,0,1.25-.18,11.99.86,23.28,5.1,34.71.18.49.02,1.03.83.87-.02.1.02.21,0,.31-.09.55-.56.98-.3,1.97.05.21.46.21.51.32.83,1.99,1.58,3.56,2.03,5.48,1.09-.21,1.33,1.89,1.85,2.9.61,1.17,2.47,3.81,2.85,5.01.24.76.13,1.45.34,2.03.03.08,1.16,1.2,1.25,1.23.38.16.6.04.84.09,1.03,2.86,2.31,5.04,4.68,6.87.33,2.1.78,1.3,1.77,2.59.18.24.02.81.2,1.05.22.28,1.62,1.29,1.68,1.43.17.39.02,1.07.1,1.15s.76-.07,1.15.1c.24.11,3.63,3.5,3.74,3.74.17.39.02,1.07.1,1.15s.76-.07,1.15.1,2.96,3.43,3.3,3.56c.48.19.96.02,1.16.09,1.61,1.83,2.47,2.77,4.49,4.24.45.33,1.31.44,1.66.84.28.32.29,1.03.44,1.12.25.16.93-.06,1.44.13.1.04,1.15,1.47,1.42,1.68.24.18.79.02,1.05.2,2.03,1.4,3.01,2.49,5.49,3.03.28.06.79,1.16,1.09,1.22.51.12,1.11-.03,1.64.01.66,1.83,2.83,1.63,4.4,2.31.6.26,1.23,1.38,1.44,1.42,2.5.53,5.09,1.47,7.37,2.4,1.52.62,2,.42,3.43.74.25.05.08.57.66.64.76.09,1.68-.17,2.45-.01.27.05.81,1.17,1.08,1.22.99.2,2.37-.2,3.3.02.24.06.19.55.43.61,2.3.55,5.92.3,8.35.65,7.09,1.02,17.16,1.09,24.02-.04,4.2-.7,8.35-1.41,12.48-2.5,5.58-1.47,10.81-4.42,16.5-5.6.15-.03,1.67-1.45,2.21-1.75,1.46-.81,2.62-1.16,4.19-2.2.92-.61.9.06,1.32-1.03,1.5-.28,6.58-3.4,8.02-4.47.47-.35,1.71-1.78,1.97-2.4,4.77-3.6,9-8.18,13.11-12.48,4.27-4.47,8.14-9.34,11.26-14.72,1.15-1.98,3.92-6.75,4.03-8.69,0-.1,0-.21,0-.31.8.17.64-.38.85-.85,2.57-5.88,4.19-9.84,5.64-15.6.35-1.41,1.15-2.75,1.31-3.42.36-1.45-.88-4.07,1.25-4.47-.17,1.62.22,3.61.03,5.17-.08.6-.6.3-.67.89-.31,2.43.53,6.56.02,8.7-.75,3.14-1.7,7.14-2.48,10.42-.29,1.22-.33,3.17-.64,4.57-.58,2.65-3.25,8.44-4.26,10.93-.73,1.81-.89,2.56-1.35,4.27-1.67.78-2.9,4.93-3.78,6.6-2.79,5.32-5.9,8.47-9.23,12.85-.18.24-.02.81-.2,1.05-.59.77-2.18,1.24-1.77,2.59-3.44,3.41-6.28,7.13-10.3,9.99-1.29.92-.97.36-2.18,1.87-2.16.84-1.08.61-2.59,1.77-.55.43-2.98,1.65-3.55,2.07-.28.21-1.32,1.33-1.35,1.77-2.17,1.33-3.58,2.3-5.93,3.43-2.99,1.44-5.82,3.05-8.77,4.48-3.81,1.85-7.68,2.48-10.99,3.84-.72.29-2.91,1.27-3.23,1.35-.93.23-2.38-.22-3.31.02-.11.03-1.58,1.2-1.69,1.23-.93.23-2.37-.21-3.31.02-2.96.71-6.41.99-9.4,1.89-9.27.24-18.2-.11-26.84-1.3-2.11-.29-2.78-.99-4.86-.91-4.33.17-15.28-4.72-19.66-6.55.05-1.11-1.24-1.07-1.61-1.28-1.49-.85-2.07-1.42-3.38-1.53-2.27-.18-9.55-5.6-11.86-7.18.25-1.88-.34-.92-1.16-1.34-.2-.1-.64-1.05-.95-1.14-.34-.1-.84.06-1.01-.01-.47-.63-3.13-3.82-3.74-4.15s-.94-.26-1.57-.21c-.11-.09-.2-.21-.31-.31.22-2.25-.19-1.19-1.16-1.65-.73-.35-1.69-2.43-2.09-2.91-1.27-1.51-2.22-1.78-3.61-2.62-.02-.05.34-.4,0-1.01s-2.74-2.28-3.03-2.82c-.19-.34.01-.92-.14-1.1-.13-.16-.84-.03-1.06-.34-.24-.33-.05-1.01-.23-1.5-.04-.1-1.48-1.16-1.68-1.43-2.34-3.16-4.99-7.81-6.95-11.39-.79-1.44-.29-.47-1.1-1.31-.75-.78-2.24-5.04-2.7-6.29-.19-.52-1.14-2.68-1.21-2.96-.14-.63.11-1.39-.02-2.06-.05-.24-.96-.69-1.14-.95-.85-1.28-.73-3.64-1.45-5.42-.12-.28-1.1-2.05-1.14-2.19-.35-1.43-.29-4.01-.64-5.5-.05-.23-.55-.19-.61-.43-.29-1.23.28-3.34-.01-4.56-.03-.14-1.23-1.98-1.27-2.22-.24-1.79.28-4.17.05-5.97-.08-.6-.6-.3-.67-.89-.29-2.31-.29-9.9,0-12.21.08-.6.6-.3.67-.89.26-2.09-.16-4.83-.02-7.04.07-1.18,1.47-9.68,1.87-9.99Z" style="fill:#f58d31;"/><path d="M150.11,104.55c-.89,1.36-3.29,1.6-4.43,2.21-29.35,15.58-44.66,48.29-37.54,81.12,4.51,20.83,21.72,41.49,41.14,49.98,19.75,8.63,45.19,7.65,64.19-2.7,1.92-1.04,3.7-2.38,5.6-3.45.4-.22.62-.64,1.26-.46-.21.53-.52,1.01-.92,1.41-10.97,11.19-30.23,18.71-45.74,19.49-37.11,1.87-71.03-23.29-78.41-59.84-6.97-34.54,10.61-68.37,42-83.31,4.02-1.92,8.49-3.67,12.85-4.46Z" style="fill:#70be4e;"/><path d="M225.45,112.55c25.44,26.45,28.43,67.74,5.8,97.01-9.6,12.42-17.49,18.13-31.93,24.26-.11.05-1.4,1.06-1.69,1.17-.65.24-4.63,1.62-4.91,1.58-.25-.03-.6-.4-.15-.77,1.14-.97,3.77-1.6,5.08-2.35,34.32-19.5,46.7-64.23,27.11-98.83-20.74-36.64-68.75-48.03-103.23-24.49-.78.54-1.99,1.62-2.93,1.14,7.49-7.27,16.64-13.26,26.45-16.93,28.25-10.58,59.64-3.37,80.4,18.22Z" style="fill:#2b6393;"/><path d="M190.87,124.03c.08.04.15.32.38.46.27.16,4.59,1.82,3.8,2.53-3.28-1.03-6.17-2.5-9.61-3.34-35.99-8.78-67.79,24.29-57.4,59.9,4.19,14.36,15.4,25.77,29.24,31.15l-.16.62c-20.64-4.3-36.71-21.62-39.12-42.64-4.57-39.75,37.76-68.23,72.87-48.67Z" style="fill:#2b6393;"/><path d="M179.76,130.76c14.07,3.55,24.74,10.45,32,23.4,20.63,36.82-11.07,80.5-52.35,72.63-6.32-1.2-13.35-4-18.35-8.02,3.51.9,6.81,2.43,10.36,3.22,39.96,8.9,71.96-32.91,52.62-69.16-4.81-9.02-14.67-18.12-24.28-21.75v-.31Z" style="fill:#495767;"/><path d="M81.14,204.1l1.68,3.95c1.53.95,1.45,3.44,2.48,5,1.46,2.2,1.89,3.96,3.18,6.33.27.49.89.49,1.02.71.35.6.75,2.35,1.01,3.04.25.05.83-.1.92.01.06.06.03,1,.25,1.46.94,1.94,3.17,3.25,3.51,5.39,2.38,1.84,4.19,4.86,6.42,7.17,2.54,2.63,5.43,4.96,7.94,7.81,2.04.79,4.18,3.14,6,4.47,1.61,1.18,3.03,2,4.87,2.99,1.73.93,3.46,2.25,5.12,3.24,1.07.64,2.35.75,2.73,1.78,1.88.17,2.33.54,3.85,1.14,2.59,1.03,5.23,2.7,8.26,3.76,18.36,6.4,38.59,6.56,56.96,1.95,1.56-.39,4.09-1.29,5.74-1.97,1.83-.75,4.16-1.65,5.95-2.38.34-.14.98.11,1.36-.15.32-.22.2-.95.33-1.07.12-.11,1.81-.02,2.47-.19,2.65-.67,6.27-3.77,8.73-4.22.42-1.1.42-.42,1.31-1.03,2.78-1.9,5.96-3.79,8.67-5.83-.26.62-1.5,2.05-1.97,2.4-1.44,1.07-6.51,4.19-8.02,4.47-.42,1.09-.39.42-1.32,1.03-1.57,1.04-2.73,1.39-4.19,2.2-.54.3-2.06,1.72-2.21,1.75-5.68,1.19-10.91,4.13-16.5,5.6-4.13,1.09-8.28,1.8-12.48,2.5-6.86,1.14-16.93,1.06-24.02.04-2.43-.35-6.06-.09-8.35-.65-.24-.06-.19-.55-.43-.61-.93-.22-2.31.18-3.3-.02-.27-.06-.81-1.17-1.08-1.22-.77-.15-1.68.11-2.45.01-.57-.07-.41-.59-.66-.64-1.43-.31-1.91-.11-3.43-.74-2.28-.93-4.87-1.87-7.37-2.4-.21-.04-.84-1.16-1.44-1.42-1.58-.69-3.74-.49-4.4-2.31-.53-.05-1.13.1-1.64-.01-.3-.07-.81-1.16-1.09-1.22-2.48-.55-3.46-1.63-5.49-3.03-.26-.18-.81-.02-1.05-.2-.27-.21-1.32-1.64-1.42-1.68-.51-.19-1.2.03-1.44-.13-.15-.1-.15-.8-.44-1.12-.35-.4-1.21-.52-1.66-.84-2.02-1.47-2.88-2.4-4.49-4.24-.2-.08-.68.09-1.16-.09-.34-.13-2.92-3.39-3.3-3.56s-1.07-.02-1.15-.1.07-.76-.1-1.15c-.11-.24-3.5-3.63-3.74-3.74-.39-.17-1.07-.02-1.15-.1s.07-.76-.1-1.15c-.06-.14-1.47-1.15-1.68-1.43-.18-.24-.02-.81-.2-1.05-1-1.3-1.44-.49-1.77-2.59-2.37-1.83-3.65-4-4.68-6.87-.24-.05-.46.06-.84-.09-.08-.03-1.22-1.15-1.25-1.23-.21-.58-.1-1.28-.34-2.03-.37-1.19-2.24-3.84-2.85-5.01-.53-1.02-.77-3.11-1.85-2.9-.45-1.92-1.2-3.49-2.03-5.48-.05-.11-.45-.11-.51-.32-.25-.99.21-1.42.3-1.97Z" style="fill:#e3a86c;"/><path d="M260.28,211.28c-.03-.94.41-1.56.83-2.6.88-2.16,1.64-4.73,2.5-6.87,2.14-5.32,3.55-10.66,4.45-16.31.33-2.1.51-4.55.65-6.68.78-.06.53-.08.61.47,1.4,9.43.49,18.83-1.21,28.12-.27,1.49-.31,3.19-.67,4.64-1.66,6.74-4.27,13.21-6.83,19.64-.12.35-.52.13-.65.19-1.66,6.09-4.99,10.97-8.64,15.7-1.92,2.49-4.06,5.13-6.34,7.39-.41-1.35,1.18-1.83,1.77-2.59.18-.24.02-.81.2-1.05,3.34-4.37,6.44-7.53,9.23-12.85.88-1.67,2.11-5.82,3.78-6.6.47-1.71.62-2.46,1.35-4.27,1.01-2.49,3.68-8.28,4.26-10.93.31-1.39.34-3.34.64-4.57.79-3.28,1.73-7.28,2.48-10.42.51-2.14-.32-6.27-.02-8.7.08-.6.6-.3.67-.89.2-1.56-.19-3.55-.03-5.17-2.13.39-.9,3.01-1.25,4.47-.16.67-.96,2.01-1.31,3.42-1.44,5.76-3.07,9.73-5.64,15.6-.21.47-.05,1.02-.85.85Z" style="fill:#e3a86c;"/><path d="M70.22,175.08c-.14,2.22.29,4.95.02,7.04-.08.6-.6.3-.67.89-.29,2.31-.29,9.9,0,12.21.08.6.6.3.67.89.23,1.8-.29,4.18-.05,5.97.03.24,1.23,2.09,1.27,2.22.3,1.22-.28,3.33.01,4.56.06.24.56.19.61.43.35,1.5.29,4.07.64,5.5.03.14,1.02,1.9,1.14,2.19.73,1.78.61,4.14,1.45,5.42.17.26,1.09.7,1.14.95.13.67-.12,1.43.02,2.06.06.28,1.01,2.45,1.21,2.96.47,1.26,1.96,5.52,2.7,6.29.81.84.31-.13,1.1,1.31,1.96,3.58,4.61,8.23,6.95,11.39.2.26,1.64,1.32,1.68,1.43.18.49,0,1.17.23,1.5.22.31.93.18,1.06.34.16.19-.04.76.14,1.1.29.54,2.7,2.2,3.03,2.82s-.02.96,0,1.01c1.4.83,2.34,1.1,3.61,2.62.4.48,1.36,2.56,2.09,2.91.97.47,1.39-.6,1.16,1.65-.97-.87-2.6-1.92-3.62-2.93-1.29-1.29-2.69-2.54-3.25-4.25-2.6-1.55-5.53-6.33-7.39-8.98-4.75-6.77-9.5-14.61-11.94-21.84-5.46-16.17-7.25-31.15-5.61-48.26.05-.51.2-1.08.59-1.43Z" style="fill:#e3a86c;"/><path d="M219.09,275.88c.04.75-.45.81-.92,1.11-2.4,1.54-6.79,3.92-9,4.79-3.97,1.55-8.72,3.1-13.1,4.32-14.47,4.01-31.34,4.38-46.18,1.4-1.16-.23-2.52.28-3.21-1.01,2.09-.08,2.75.62,4.86.91,8.64,1.18,17.56,1.54,26.84,1.3,2.99-.9,6.45-1.18,9.4-1.89.94-.23,2.38.22,3.31-.02.11-.03,1.58-1.2,1.69-1.23.93-.23,2.38.21,3.31-.02.32-.08,2.51-1.05,3.23-1.35,3.32-1.36,7.19-1.99,10.99-3.84,2.95-1.43,5.77-3.04,8.77-4.48Z" style="fill:#e3a86c;"/><path d="M72.09,165.09c.09-.71-.15-1.62,0-2.28.8-3.36,3.13-7.44,3.77-11.2l1.53-2.12c.62,1.01-.22,1.56-.29,2.36-.46,4.76-1.06,8.94-1.26,14.04-.02.6.32,1.25-.62,1.08.04-1.81.25-4.75.03-6.42-.08-.61-.67-.43-.67-.61,0-.56.97-1.47.64-2.33l-1.24,1.46c.51,1.64-1.01,3.35-1.25,4.37-.11.46.11,1.5,0,1.66-.05.07-.53-.07-.62,0Z" style="fill:#e3a86c;"/><path d="M75.21,168.21l.61,12.34c1.68,6.69,1.98,15.48,4.92,21.6.43.89.85-.3.41,1.63-.81.16-.65-.37-.83-.87-4.23-11.43-5.28-22.72-5.1-34.71Z" style="fill:#e3a86c;"/><path d="M260.28,211.59c-.11,1.94-2.88,6.71-4.03,8.69-3.12,5.38-6.99,10.25-11.26,14.72-.55-1.32,1.43-1.94,1.78-2.59.19-.34-.01-.9.15-1.1.09-.11.83-.14,1.23-.49.45-.4.45-.99.72-1.32,2.21-2.61,4.45-5.92,6.37-8.75,1.2-1.76,1.13-2.73,1.71-4.41.02-.06.85-.56,1.02-.83.99-1.58.32-3.28,2.32-3.93Z" style="fill:#e3a86c;"/><path d="M41.51,258.41c.69-.15.66.38.93.77,1.21,1.77,2.91,3.46,3.45,5.47l.56-.26,3.79,5.57c-3.75-4.17-5.58-6.38-8.74-11.55Z" style="fill:#d7b0ba;"/><path d="M244.36,34.95l.15-.26c1.8,1.31,3.83,2.35,5.5,3.82.14.12,1.13.34.58.81-.17.15-3.69-1.61-4.15-1.87-.69-.39-2.27-1.78-3.03-2.18l.94-.31Z" style="fill:#d7b0ba;"/><path d="M234.69,264.96c-.11,1.11-1.3,1.53-2.18,1.87-2.23,2.78-4.52,3.8-7.49,5.62.02-.44,1.07-1.56,1.35-1.77.57-.43,2.99-1.65,3.55-2.07,1.52-1.17.44-.93,2.59-1.77,1.21-1.51.89-.95,2.18-1.87Z" style="fill:#e3a86c;"/><path d="M101.74,263.09c.63-.04.98-.11,1.57.21s3.27,3.52,3.74,4.15c.17.07.67-.09,1.01.01.31.09.75,1.04.95,1.14.82.42,1.41-.54,1.16,1.34-1.66-1.13-1.91-.86-3.12-2.5-2.54-1.05-3.4-2.69-5.31-4.37Z" style="fill:#e3a86c;"/><path d="M122.03,277.13c1.32.11,1.89.68,3.38,1.53.37.21,1.66.17,1.61,1.28-.88-.37-2.51-.55-3.49-1.28l-1.51-1.52Z" style="fill:#e3a86c;"/><path d="M292.74,261.84c.93-1,1.71-2.45,2.96-3.12.16,1.05-1.18,2.98-2.03,3.12-.29.05-.64-.03-.94,0Z" style="fill:#d7b0ba;"/><path d="M179.76,130.76v.31c-.39-.15-3.76-.61-3.75-1.09.99-.42,2.23-.03,3.21.24.36.1.5.53.54.54Z" style="fill:#2b6393;"/><path d="M278.07,275.57c-.8.68-1.47,1.56-2.35,2.19l-3.58,2.18c1.37-1.07,2.99-2.93,4.6-4.03.5-.34.6-.5,1.33-.34Z" style="fill:#d7b0ba;"/><path d="M288.99,265.9l-.94.94c.05-.07-.03-.42.15-.63.28-.32.71-.24.79-.3Z" style="fill:#d7b0ba;"/><path d="M293.05,262.78c.15-.29.29-.51.62-.62l-.62.62Z" style="fill:#d7b0ba;"/><path d="M285.56,269.02c.32-.73,1.02-1.07,1.56-1.56-.33.73-1.01,1.07-1.56,1.56Z" style="fill:#d7b0ba;"/><path d="M289.62,265.27c.1-.11.21-.21.31-.31l-.31.31Z" style="fill:#d7b0ba;"/><path d="M278.51,262.91c-10.9,10.3-23.99,19.66-37.97,25.18l-1.17.9c-.15-.78,0-.66.38-1.04,1.26-1.24,4.63-3.34,6.32-4.59,70.76-52.36,68.97-159.32-1.92-210.91-44.74-32.56-106.79-34.46-152.87-3.49-.09-.47.46-1.11.77-1.41,2.9-2.89,7.32-6.2,10.66-8.69,60.68-45.26,146.79-33.25,191.71,27.62,40.32,54.63,33.22,130-15.91,176.43Z" style="fill:#95368f;"/></svg>